<?xml version="1.0" encoding="utf-8"?>
<!-- Generator: Adobe Illustrator 25.0.0, SVG Export Plug-In . SVG Version: 6.00 Build 0)  -->
<svg version="1.1" id="圖層_1" xmlns="http://www.w3.org/2000/svg" xmlns:xlink="http://www.w3.org/1999/xlink" x="0px" y="0px"
	 viewBox="0 0 270.7 28.8" style="enable-background:new 0 0 270.7 28.8;" xml:space="preserve">
<style type="text/css">
	.st0{fill:#333333;}
</style>
<g>
	<g>
		<path class="st0" d="M187.6,6.3l-2.4-4.2h1.3l1.7,2.9l1.7-2.9h1.3l-2.4,4.2v3.2h-1.1V6.3z"/>
		<path class="st0" d="M191.3,5.8c0-1,0.4-1.9,1.1-2.7c0.8-0.7,1.7-1.1,2.7-1.1c1.1,0,2,0.4,2.7,1.1c0.8,0.8,1.1,1.7,1.1,2.7
			c0,1.1-0.4,2-1.1,2.7c-0.8,0.7-1.7,1.1-2.8,1.1c-1,0-1.8-0.3-2.6-1C191.7,7.9,191.3,7,191.3,5.8z M192.4,5.8c0,0.8,0.3,1.5,0.8,2
			c0.5,0.5,1.2,0.8,1.9,0.8c0.8,0,1.4-0.3,2-0.8c0.5-0.5,0.8-1.2,0.8-2c0-0.8-0.3-1.4-0.8-2c-0.5-0.5-1.2-0.8-1.9-0.8
			c-0.8,0-1.4,0.3-1.9,0.8C192.7,4.4,192.4,5,192.4,5.8z"/>
		<path class="st0" d="M200.4,9.5V1.7l5.4,5.6V2.2h1.1V10l-5.4-5.6v5.2H200.4z"/>
		<path class="st0" d="M212.5,5.7h3v0.2c0,0.6-0.1,1-0.2,1.5c-0.1,0.4-0.3,0.8-0.6,1.1c-0.7,0.8-1.6,1.2-2.6,1.2
			c-1,0-1.9-0.4-2.7-1.1c-0.7-0.7-1.1-1.6-1.1-2.7c0-1.1,0.4-2,1.1-2.7c0.7-0.7,1.7-1.1,2.7-1.1c0.6,0,1.1,0.1,1.6,0.4
			c0.5,0.2,0.9,0.6,1.4,1.1l-0.8,0.8c-0.6-0.8-1.3-1.2-2.2-1.2c-0.8,0-1.4,0.3-2,0.8c-0.5,0.5-0.8,1.2-0.8,2c0,0.8,0.3,1.5,0.9,2
			c0.6,0.5,1.1,0.7,1.8,0.7c0.5,0,1-0.2,1.5-0.6c0.4-0.4,0.7-0.8,0.7-1.3h-1.8V5.7z"/>
		<path class="st0" d="M222.2,2.2v4.8c0,0.6,0,1-0.1,1.3c-0.1,0.3-0.2,0.6-0.4,0.8c-0.4,0.4-0.9,0.7-1.5,0.7c-0.5,0-0.9-0.1-1.3-0.4
			l0.5-1c0.3,0.2,0.5,0.3,0.8,0.3c0.3,0,0.6-0.1,0.7-0.4c0.1-0.3,0.2-0.7,0.2-1.3V2.2H222.2z"/>
		<path class="st0" d="M225.1,2.2v4.4c0,0.6,0.1,1.1,0.3,1.4c0.3,0.4,0.7,0.6,1.3,0.6c0.6,0,1-0.2,1.3-0.6c0.2-0.3,0.3-0.7,0.3-1.4
			V2.2h1.1v4.7c0,0.8-0.2,1.4-0.7,1.9c-0.5,0.6-1.2,0.8-2,0.8c-0.8,0-1.5-0.3-2-0.8c-0.5-0.5-0.7-1.1-0.7-1.9V2.2H225.1z"/>
		<path class="st0" d="M238,5.7h3v0.2c0,0.6-0.1,1-0.2,1.5c-0.1,0.4-0.3,0.8-0.6,1.1c-0.7,0.8-1.6,1.2-2.6,1.2c-1,0-1.9-0.4-2.6-1.1
			c-0.7-0.7-1.1-1.6-1.1-2.7c0-1.1,0.4-2,1.1-2.7c0.7-0.7,1.7-1.1,2.7-1.1c0.6,0,1.1,0.1,1.6,0.4c0.5,0.2,0.9,0.6,1.4,1.1l-0.8,0.8
			c-0.6-0.8-1.3-1.2-2.2-1.2c-0.8,0-1.4,0.3-2,0.8c-0.5,0.5-0.8,1.2-0.8,2c0,0.8,0.3,1.5,0.9,2c0.6,0.5,1.1,0.7,1.8,0.7
			c0.5,0,1-0.2,1.5-0.6c0.4-0.4,0.7-0.8,0.7-1.3H238V5.7z"/>
		<path class="st0" d="M244.9,6.4l2.3,3.1h-1.4l-2.1-3h-0.2v3h-1.1V2.2h1.3c1,0,1.7,0.2,2.1,0.5c0.5,0.4,0.7,0.9,0.7,1.6
			c0,0.5-0.1,1-0.4,1.3C245.8,6,245.4,6.3,244.9,6.4z M243.6,5.5h0.4c1.1,0,1.6-0.4,1.6-1.2c0-0.8-0.5-1.1-1.5-1.1h-0.4V5.5z"/>
		<path class="st0" d="M247.8,5.8c0-1,0.4-1.9,1.1-2.7c0.8-0.7,1.7-1.1,2.7-1.1c1.1,0,2,0.4,2.7,1.1c0.8,0.8,1.1,1.7,1.1,2.7
			c0,1.1-0.4,2-1.1,2.7c-0.8,0.7-1.7,1.1-2.8,1.1c-1,0-1.8-0.3-2.6-1C248.2,7.9,247.8,7,247.8,5.8z M248.9,5.8c0,0.8,0.3,1.5,0.8,2
			c0.5,0.5,1.2,0.8,1.9,0.8c0.8,0,1.4-0.3,2-0.8c0.5-0.5,0.8-1.2,0.8-2c0-0.8-0.3-1.4-0.8-2c-0.5-0.5-1.2-0.8-1.9-0.8
			c-0.8,0-1.4,0.3-1.9,0.8C249.2,4.4,248.9,5,248.9,5.8z"/>
		<path class="st0" d="M258,2.2v4.4c0,0.6,0.1,1.1,0.3,1.4c0.3,0.4,0.7,0.6,1.3,0.6c0.6,0,1-0.2,1.3-0.6c0.2-0.3,0.3-0.7,0.3-1.4
			V2.2h1.1v4.7c0,0.8-0.2,1.4-0.7,1.9c-0.5,0.6-1.2,0.8-2,0.8s-1.5-0.3-2-0.8c-0.5-0.5-0.7-1.1-0.7-1.9V2.2H258z"/>
		<path class="st0" d="M265.2,6.5v3h-1.1V2.2h1.3c0.6,0,1.1,0,1.4,0.1c0.3,0.1,0.6,0.2,0.8,0.5c0.4,0.4,0.6,0.9,0.6,1.6
			c0,0.7-0.2,1.2-0.7,1.6s-1.1,0.6-1.8,0.6H265.2z M265.2,5.5h0.4c1,0,1.5-0.4,1.5-1.2c0-0.8-0.5-1.1-1.6-1.1h-0.4V5.5z"/>
	</g>
</g>
<g>
	<path class="st0" d="M20.7,17.9c-0.9-0.9-1.8-1.9-2.5-3c0.7-0.4,1.5-0.7,2.2-1.2c1-0.5,1.9-1.1,2.7-1.7c0.9-0.6,1.6-1.1,2.2-1.6
		c0.4,0.1,0.6,0.1,0.8,0s0.3-0.2,0.4-0.3l-4-2.6c-0.4,0.7-0.8,1.4-1.4,2.3c-0.6,0.9-1.2,1.8-1.9,2.6c-0.5,0.6-1,1.2-1.5,1.8
		c0,0,0-0.1-0.1-0.1c-0.8-1.5-1.5-3.2-2-5.2V8.9c0.3-0.1,0.5-0.1,0.7-0.2c0.2-0.1,0.3-0.2,0.4-0.3l-3.3-2.6L12,7.5H5l0.3,0.9h7v15.3
		c0,0.2,0,0.4-0.1,0.5c-0.1,0.1-0.3,0.2-0.5,0.2c-0.2,0-0.5,0-0.9,0c-0.5,0-0.9-0.1-1.5-0.1s-1.1-0.1-1.8-0.1v0.4
		c0.8,0.1,1.4,0.3,1.9,0.5c0.4,0.2,0.8,0.4,1,0.7c0.3,0.3,0.4,0.6,0.5,1c0.1,0.4,0.2,0.9,0.2,1.5c1.4-0.1,2.4-0.4,3.1-0.7
		c0.7-0.3,1.1-0.8,1.3-1.4c0.2-0.6,0.3-1.2,0.3-2V10.4c0.3,1.7,0.7,3.3,1.2,4.7c0.6,1.7,1.2,3.2,2,4.5c0.8,1.3,1.7,2.4,2.7,3.4
		c1,1,2.1,1.9,3.3,2.7c0.2-0.8,0.6-1.5,1.1-2.1c0.5-0.6,1.1-1,1.8-1.1l0.1-0.3c-1.3-0.5-2.5-1-3.7-1.7C23,19.8,21.8,18.9,20.7,17.9z
		"/>
	<path class="st0" d="M10.3,13.8c0.3,0,0.6-0.1,0.7-0.1c0.2-0.1,0.3-0.2,0.4-0.3l-3-2.5l-1.7,1.7h-6l0.3,0.9h5.9
		c-0.3,1.4-0.6,2.7-1.1,4c-0.6,1.6-1.3,3.1-2.3,4.4c-0.9,1.4-2.1,2.6-3.5,3.6l0.2,0.4c2-0.9,3.6-1.9,5-3.2c1.3-1.2,2.4-2.6,3.2-4.1
		C9.2,17,9.9,15.4,10.3,13.8z"/>
	<path class="st0" d="M13.9,4.5C14.6,5,15.1,5.5,15.4,6c0.6,0.2,1.1,0.2,1.5,0.1s0.7-0.5,0.9-0.9c0.2-0.4,0.2-0.9,0-1.4
		c-0.2-0.5-0.6-1-1.3-1.5c-0.7-0.5-1.6-0.9-2.9-1.2s-2.9-0.4-4.8-0.3L8.7,1.1c1.1,0.5,2.1,1,3,1.6C12.5,3.3,13.3,3.9,13.9,4.5z"/>
	<path class="st0" d="M55.3,12.1c-0.3-0.3-0.7-0.6-1.1-1l-1.7,2.4h-1.8V10c0.3,0,0.5-0.1,0.6-0.2c0.1-0.1,0.2-0.3,0.2-0.4l-4-0.4
		v4.5h-4c0-1,0.1-1.9,0.1-2.8V8.8h9.2v0.9h0.6c0.4,0,0.8-0.1,1.2-0.2c0.4-0.1,0.8-0.2,1.1-0.4c0.3-0.1,0.4-0.3,0.4-0.3V4.1
		c0.3-0.1,0.5-0.1,0.7-0.2c0.2-0.1,0.3-0.2,0.4-0.3l-3.1-2.3l-1.5,1.6h-8.4l-3.8-1.4v1.1v0.3v1.1c-0.2-0.2-0.5-0.4-0.7-0.7
		c-0.3-0.3-0.7-0.6-1-0.9c-0.3-0.3-0.7-0.6-1.1-1l-1.6,2.4h-2.9h-3.3l0.2,0.8h3.1v7.2h-3l0.2,0.8h2.8v7.7c-0.4,0.1-0.8,0.2-1.1,0.3
		c-1.1,0.3-2,0.5-2.6,0.6l1.5,3.9c0.2,0,0.3-0.1,0.5-0.3s0.2-0.3,0.3-0.5c2-1.2,3.7-2.2,5.2-3.2c1.3-0.9,2.4-1.6,3.3-2.2
		c-0.2,1.1-0.4,2.3-0.6,3.4c-0.5,1.9-1.2,3.7-2.2,5.3l0.4,0.2c1.5-1.2,2.6-2.5,3.4-3.9c0.8-1.4,1.4-2.9,1.8-4.4
		c0.1-0.3,0.1-0.7,0.2-1v0.1v9.5h0.5c0.4,0,0.9-0.1,1.3-0.2s0.8-0.3,1-0.4s0.4-0.3,0.4-0.4v-1.1h6.3V28h0.6c0.4,0,0.7-0.1,1.2-0.2
		c0.4-0.1,0.8-0.2,1.1-0.4c0.3-0.1,0.5-0.2,0.5-0.3v-7.1c0.3-0.1,0.5-0.1,0.7-0.3c0.2-0.1,0.3-0.2,0.4-0.4L53.4,17l-1.5,1.7h-1.3
		v-4.4h5.9c0.5,0,0.7-0.2,0.8-0.5c-0.3-0.3-0.6-0.6-1-0.9C56,12.6,55.6,12.3,55.3,12.1z M40,16.6c0,0.7-0.1,1.3-0.2,2
		c-1.2,0.3-2.4,0.7-3.6,1v-6.8h3.2c0.4,0,0.7-0.1,0.8-0.4c-0.3-0.4-0.6-0.7-1-1.1c-0.4-0.4-0.9-0.9-1.4-1.5l-1.4,2.2h-0.1V4.6h3.4
		c0.3,0,0.5-0.1,0.6-0.2v6.3C40.2,12.6,40.1,14.6,40,16.6z M52.6,3.7V8h-9.2V3.7H52.6z M52.2,19.5v5.7h-6.3v-5.7H52.2z M47.4,18.7
		h-1.3L43,17.5c0.1-0.8,0.2-1.6,0.3-2.5c0-0.2,0-0.5,0-0.7h4.1V18.7z"/>
	<path class="st0" d="M82.8,24.2c-0.7,0-1.3,0-1.9,0c-0.6,0-1.1,0-1.4,0c-2.7,0-5.1-0.1-7.2-0.3c-2.1-0.2-3.9-0.7-5.4-1.3
		c-0.4-0.2-0.7-0.3-1-0.5c0,0,0,0,0-0.1c0.7-1.3,1.3-2.6,1.7-4c0.4-1.4,0.7-2.8,0.9-4.3c0.6-0.1,0.9-0.2,1.1-0.5l-2.9-2.5l-1.6,1.7
		h-1.3c0.2-0.3,0.3-0.7,0.5-1.1c0.4-0.8,0.7-1.5,1.1-2.4c0.4-0.8,0.8-1.6,1.1-2.3c0.2-0.5,0.4-0.9,0.6-1.3c0.1,0,0.3,0,0.4,0
		c0.4-0.1,0.7-0.2,0.9-0.4l-2.9-2.6L64,3.7h-5.1l0.3,0.8h4.9c-0.1,0.3-0.3,0.7-0.5,1.1c-0.3,0.8-0.7,1.6-1.1,2.4s-0.8,1.7-1.2,2.4
		c-0.2,0.5-0.5,0.9-0.7,1.3c-0.1,0-0.1,0.1-0.2,0.1c-0.3,0.2-0.6,0.3-0.8,0.5l2.9,1.8l1-1.1h1.7c-0.2,1.7-0.4,3.4-0.8,5
		c-0.2,0.8-0.4,1.6-0.7,2.3c-0.3-0.3-0.6-0.6-0.8-0.9c-1.1-1.2-2-2.9-2.7-4.9l-0.3,0.2c0.7,2.6,1.5,4.7,2.6,6.4
		c0.2,0.3,0.4,0.6,0.6,0.9c-0.2,0.5-0.4,0.9-0.7,1.4c-0.9,1.6-2.2,3-3.8,4.3l0.2,0.4c1.7-0.8,3.1-1.7,4.2-2.8
		c0.6-0.5,1.1-1.1,1.5-1.6c0.5,0.5,1.1,0.9,1.7,1.3c1.5,0.9,3.3,1.5,5.5,1.8c2.1,0.3,4.6,0.5,7.4,0.5c0.4,0,0.9,0,1.6,0s1.3,0,1.9,0
		s1.2,0,1.6,0c0-0.7,0.2-1.3,0.6-1.8c0.3-0.5,0.8-0.9,1.5-1v-0.4c-0.5,0-1,0-1.6,0C84.1,24.2,83.5,24.2,82.8,24.2z"/>
	<path class="st0" d="M84.4,5.5L83,7.7h-0.2V5.3c0.3-0.1,0.5-0.1,0.7-0.3c0.2-0.1,0.4-0.2,0.4-0.3l-3.1-2.4l-1.5,1.6h-2.3V2
		c0.4-0.1,0.7-0.2,0.8-0.3c0.1-0.1,0.2-0.3,0.2-0.5l-4.3-0.4v3.2h-4.8l0.3,0.9h4.6v2.9h-6.7l0.2,0.8h6.5v3h-4.6l0.3,0.9h4.3v3h-4.9
		l0.2,0.9h4.6v3.1h-6.2l0.2,0.9h6v3.6h0.6c0.4,0,0.8-0.1,1.2-0.2c0.4-0.1,0.7-0.2,1-0.4c0.3-0.1,0.4-0.3,0.4-0.4v-2.7H85
		c0.2,0,0.4,0,0.5-0.1c0.1-0.1,0.2-0.2,0.3-0.4c-0.3-0.3-0.7-0.6-1.1-0.9c-0.4-0.3-0.8-0.6-1.1-0.9c-0.4-0.3-0.8-0.6-1.2-1l-1.8,2.3
		h-3.5v-3.1h6.7c0.4,0,0.7-0.2,0.8-0.5c-0.3-0.3-0.6-0.6-1-0.9c-0.3-0.3-0.7-0.6-1-0.8c-0.3-0.3-0.7-0.5-1.1-0.9l-1.6,2.2h-2.8v-3
		h2.6v1h0.5c0.4,0,0.8,0,1.2-0.1c0.4-0.1,0.7-0.2,1-0.3s0.4-0.2,0.4-0.3v-4h3.3c0.4,0,0.7-0.2,0.8-0.5c-0.3-0.3-0.6-0.7-1-1.1
		C85.5,6.6,85,6.1,84.4,5.5z M77.1,4.8h2.6v2.9h-2.6V4.8z M79.7,11.5h-2.6v-3h2.6V11.5z"/>
	<path class="st0" d="M114.8,9L114.6,9h-0.3c-0.1,0-0.2,0-0.4,0.1c-0.1,0-0.2,0.1-0.3,0.1c-0.1,0-0.2,0-0.3,0s-0.2,0-0.3,0
		c-0.1,0-0.2,0-0.3,0s-0.3,0-0.4,0h-0.8c-0.2,0-0.3,0-0.4-0.1c-0.1-0.1-0.1-0.2-0.1-0.3V3.9c0.5-0.1,0.9-0.2,1.1-0.4l-2.9-2.3
		l-1.6,1.6h-2.4l-3.6-1.3v1v0.3v2.3c0,0.9-0.1,1.8-0.2,2.8c-0.1,1-0.4,2-0.8,3c-0.4,0.9-1,1.8-1.8,2.6c0,0-0.1-0.1-0.1-0.1
		c-0.4-0.3-0.9-0.7-1.5-1.2L95.9,14h-6.4l0.2,0.8h9.4c0.4,0,0.7-0.2,0.8-0.5c-0.2-0.2-0.4-0.4-0.6-0.5c1.2-0.5,2.1-1.1,2.8-1.8
		c0.8-0.8,1.4-1.5,1.8-2.4c0.4-0.8,0.6-1.6,0.8-2.4c0.1-0.8,0.2-1.5,0.2-2.1V3.6h3.3v5.9c0,0.6,0,1.1,0.1,1.5
		c0.1,0.4,0.3,0.6,0.7,0.8s0.9,0.2,1.6,0.2h1.4c1.4,0,2.4-0.2,3-0.5c0.6-0.3,0.9-0.8,0.9-1.4c0-0.3-0.1-0.5-0.2-0.7
		C115.4,9.4,115.1,9.2,114.8,9z"/>
	<path class="st0" d="M108.5,22.2c0.3-0.3,0.7-0.7,1-1c1.4-1.6,2.5-3.5,3.4-5.5c0.4,0,0.6-0.1,0.8-0.1c0.2-0.1,0.3-0.2,0.4-0.3
		l-3-2.8l-1.9,1.8h-9l0.3,0.9h1.4c0.5,2.3,1.2,4.3,2.1,5.8c0.3,0.5,0.6,1,1,1.5c-2.2,2.3-4.9,4.1-8.4,5.4l0.2,0.4
		c2.9-0.7,5.4-1.6,7.5-2.8c0.8-0.4,1.4-0.9,2.1-1.4c0.4,0.4,0.8,0.8,1.3,1.1c1.5,1.1,3.2,2,5.2,2.8c0.2-0.8,0.6-1.5,1.1-2
		c0.5-0.5,1.1-0.8,1.8-1l0-0.4c-1.6-0.3-3.1-0.7-4.5-1.3C110.2,23,109.4,22.6,108.5,22.2z M102.4,15.1h6.9c-0.7,2.1-1.7,3.9-3,5.6
		c-0.8-0.7-1.5-1.4-2.2-2.3C103.4,17.5,102.8,16.3,102.4,15.1z"/>
	<path class="st0" d="M93.2,5.3c0.5,0.3,1,0.5,1.5,0.4s0.8-0.2,1.1-0.5s0.5-0.7,0.5-1.1c0-0.4-0.1-0.9-0.4-1.3
		c-0.3-0.4-0.8-0.8-1.5-1.1c-0.7-0.3-1.7-0.5-3-0.6l-0.2,0.2c0.4,0.5,0.9,1.1,1.3,1.8C92.9,3.8,93.1,4.6,93.2,5.3z"/>
	<path class="st0" d="M101.3,6.5c-0.3-0.3-0.7-0.6-1.1-1c-0.4-0.4-0.9-0.8-1.6-1.3l-1.5,1.9h-8.6L88.7,7h11.8
		C100.9,7,101.2,6.8,101.3,6.5z"/>
	<path class="st0" d="M95.9,10h-6.4l0.2,0.8h9.4c0.4,0,0.7-0.2,0.8-0.5c-0.3-0.3-0.7-0.6-1.1-1c-0.4-0.3-0.9-0.7-1.5-1.2L95.9,10z"
		/>
	<path class="st0" d="M96.6,26.8c0.4,0,0.7-0.1,1.1-0.2c0.4-0.1,0.7-0.2,1-0.4c0.3-0.1,0.4-0.2,0.4-0.3v-6.8
		c0.5-0.1,0.9-0.3,1.1-0.5l-3-2.3l-1.4,1.5H93l-3.1-1.3v1.3v10.1h0.4c0.4,0,0.8-0.1,1.2-0.2s0.7-0.2,1-0.4c0.3-0.1,0.4-0.3,0.4-0.4
		v-1.8h3.3v1.6H96.6z M92.8,24.3v-5.6h3.3v5.6H92.8z"/>
	<path class="st0" d="M144.4,17.2c0.5,0,0.7-0.2,0.8-0.5c-0.3-0.3-0.7-0.6-1-0.9c-0.4-0.3-0.8-0.7-1.4-1.1l-1.3,1.6h-3.9
		c-0.3-1.9-0.5-4-0.5-6.4c0-0.9,0-1.9,0-2.9l1.2,2.6c0.3-0.1,0.5-0.4,0.7-0.9c0,0,0-0.1,0-0.1c0.3-0.2,0.6-0.3,0.9-0.5
		c0.1-0.1,0.2-0.1,0.3-0.2c0,0.1,0,0.1-0.1,0.2c-0.3,0.7-0.6,1.3-1,1.8c-0.3,0.5-0.7,1-1,1.3c-0.1,0.1-0.3,0.2-0.7,0.3l1.3,2.8
		c0.2-0.1,0.4-0.3,0.5-0.5c0.1,0.2,0.3,0.4,0.4,0.7c0.2,0.4,0.3,0.9,0.3,1.2c0.3,0.3,0.7,0.4,1,0.4c0.3,0,0.6-0.2,0.7-0.4
		c0.2-0.2,0.2-0.5,0.2-0.8c0-0.3-0.3-0.6-0.7-0.9c-0.3-0.2-0.7-0.4-1.3-0.6c0.3-0.1,0.5-0.2,0.8-0.4c0.6-0.3,1.2-0.6,1.7-0.9
		c0.1,0,0.1-0.1,0.2-0.1c0.1,0.5,0.2,1,0.1,1.5c0.3,0.4,0.7,0.5,1,0.5c0.4,0,0.6-0.2,0.9-0.5c0.2-0.3,0.3-0.7,0.3-1.1
		c0-0.5-0.3-1-0.7-1.5c-0.4-0.5-1.1-1-2.1-1.5l-0.4,0.2c0.2,0.4,0.4,1,0.6,1.6c-0.7,0.1-1.4,0.1-2,0.2c-0.2,0-0.5,0-0.7,0
		c0.3-0.3,0.6-0.6,0.9-0.9c0.7-0.7,1.3-1.4,1.9-2.1c0.5-0.6,0.9-1.1,1.2-1.6c0.2,0,0.4,0,0.5,0c0.3-0.1,0.5-0.2,0.5-0.4l-3.2-1.8
		c-0.1,0.5-0.3,1-0.6,1.6c0,0.1-0.1,0.2-0.1,0.2c-0.4,0-0.9,0.1-1.3,0.1c-0.2,0-0.4,0-0.5,0c0.2-0.2,0.4-0.4,0.6-0.6
		c0.5-0.5,1.1-1.1,1.6-1.7c0.4-0.5,0.7-0.9,1-1.3c0.2,0,0.4,0,0.5-0.1c0.3-0.1,0.4-0.2,0.5-0.4l-3.6-1.6c-0.1,0.5-0.2,1.1-0.4,1.8
		c-0.2,0.7-0.5,1.4-0.7,2.1c-0.3,0.7-0.6,1.2-0.9,1.5c-0.1,0-0.3,0.1-0.5,0.2c0-1.5,0-3,0-4.6c0.4-0.1,0.6-0.2,0.8-0.3
		c0.2-0.1,0.2-0.3,0.3-0.5l-4.1-0.5c0,1.9,0,3.7,0.1,5.5l-2.3-1.3c-0.2,0.5-0.4,1.1-0.7,1.8c-0.6,0-1.2,0.1-1.8,0.1
		c-0.3,0-0.5,0-0.7,0c0.3-0.2,0.6-0.5,0.9-0.8c0.6-0.5,1.2-1.1,1.7-1.7c0.4-0.5,0.8-0.9,1.1-1.3c0.2,0,0.4,0,0.5,0
		c0.3-0.1,0.4-0.2,0.5-0.4l-3.5-1.5c-0.1,0.5-0.3,1.1-0.6,1.8c-0.3,0.7-0.6,1.4-1,2.1c-0.4,0.7-0.7,1.2-1.1,1.5
		c-0.1,0.1-0.3,0.2-0.7,0.3l1.5,3c0.3-0.1,0.5-0.4,0.7-0.8c0.3-0.2,0.6-0.3,0.9-0.5c0.3-0.2,0.5-0.3,0.8-0.5
		c-0.1,0.3-0.3,0.5-0.4,0.8c-0.4,0.7-0.8,1.4-1.2,2c-0.4,0.6-0.8,1.1-1.2,1.4c-0.1,0.1-0.3,0.2-0.7,0.3l1.4,2.7
		c0.2-0.1,0.3-0.3,0.5-0.5c0.5-0.3,1-0.5,1.5-0.8c0.6-0.3,1.2-0.6,1.7-0.9c0.1,0,0.1-0.1,0.2-0.1c0,0.4,0.1,0.9,0,1.3
		c0.3,0.4,0.6,0.5,1,0.5c0.3,0,0.6-0.2,0.9-0.4c0.2-0.3,0.3-0.6,0.3-1.1c0-0.5-0.2-1-0.6-1.5c-0.4-0.5-1-1.1-1.9-1.6l-0.4,0.1
		c0.2,0.5,0.4,1.2,0.5,1.9c0,0,0,0,0,0.1c-0.7,0.1-1.4,0.1-2.1,0.2c-0.3,0-0.6,0-0.8,0.1c0.4-0.3,0.8-0.7,1.2-1.1
		c0.8-0.8,1.5-1.5,2.2-2.3c0.5-0.7,1-1.2,1.4-1.8c0.1,0,0.2,0,0.3,0c0,1,0.1,2,0.1,2.9c0.1,2.3,0.3,4.4,0.6,6.3h-8.3l0.2,0.8h2.5
		c0,0.6,0,1.3-0.1,1.9c-0.1,0.9-0.2,1.9-0.5,2.8c-0.3,0.9-0.7,1.9-1.2,2.8c-0.5,0.9-1.3,1.8-2.2,2.7l0.4,0.4
		c1.5-0.7,2.6-1.6,3.5-2.5c0.9-0.9,1.6-1.8,2.1-2.8c0.3-0.5,0.5-1.1,0.6-1.6c0.2,0.3,0.4,0.6,0.6,1c0.2,0.5,0.3,0.9,0.4,1.3
		c0.4,0.3,0.8,0.5,1.2,0.4c0.4,0,0.7-0.2,1-0.4c0.3-0.3,0.4-0.6,0.5-1c0-0.4-0.1-0.8-0.3-1.1c-0.3-0.4-0.7-0.7-1.3-1.1
		c-0.4-0.2-0.9-0.4-1.5-0.5c0,0,0-0.1,0-0.1c0.2-0.8,0.3-1.5,0.3-2.3h2.5c0,0.2,0.1,0.3,0.1,0.5c0.4,2.2,1,4,1.9,5.6
		c-0.1,0.1-0.1,0.2-0.2,0.2c-1.7,1.6-3.5,2.9-5.5,3.8l0.2,0.4c2.3-0.5,4.5-1.5,6.5-2.8c0,0,0.1,0,0.1-0.1c0.8,1,1.8,1.8,2.9,2.4
		c0.5,0.2,1,0.4,1.6,0.6c0.5,0.2,1.1,0.2,1.5,0.2c0.5-0.1,0.8-0.3,1.1-0.8c0.2-0.3,0.2-0.6,0.1-0.9s-0.4-0.8-0.9-1.4l0.4-4.6
		l-0.3-0.1c-0.2,0.6-0.5,1.3-0.7,2s-0.5,1.2-0.7,1.7c-0.1,0.2-0.3,0.4-0.4,0.4s-0.3,0-0.5-0.2c-0.7-0.3-1.3-0.8-1.8-1.3
		c1-1,1.9-2.1,2.7-3.4c0.4,0.1,0.6,0.1,0.8,0c0.2-0.1,0.3-0.2,0.4-0.3l-3.4-1.9c-0.5,1.2-1.1,2.4-1.9,3.4c-0.5-1.1-0.9-2.3-1.2-3.7
		H144.4z"/>
	<path class="st0" d="M125.8,16c0.4-0.1,0.6-0.3,0.8-0.6c0.2-0.4,0.2-0.8,0.2-1.3c-0.1-0.5-0.4-1.1-0.9-1.8
		c-0.5-0.6-1.2-1.2-2.2-1.7V8.8h2.7c0.4,0,0.7-0.2,0.7-0.5c-0.3-0.3-0.6-0.7-1-1c-0.4-0.4-0.8-0.8-1.3-1.3l-1.1,1.7V1.9
		c0.4-0.1,0.7-0.2,0.8-0.3c0.1-0.1,0.2-0.3,0.2-0.5l-4.1-0.4V8h-0.3h-2.8l0.2,0.9h2.5c-0.1,1.2-0.3,2.5-0.5,3.7
		c-0.3,1.5-0.6,3-1,4.4c-0.4,1.4-0.9,2.7-1.5,4l0.4,0.3c1.2-1.4,2.2-2.8,3.1-4.4v11.4h0.6c0.4,0,0.8-0.1,1.1-0.2s0.7-0.3,0.9-0.5
		c0.3-0.2,0.4-0.3,0.4-0.4V11.6c0.1,0.2,0.1,0.3,0.2,0.5c0.2,0.6,0.4,1.1,0.6,1.7c0.2,0.6,0.2,1.2,0.2,1.7
		C125.1,15.9,125.5,16,125.8,16z"/>
	<path class="st0" d="M174.1,20.7c-0.3-0.4-0.8-0.8-1.3-1.3l-0.9,1.4v-6.1c0.3-0.1,0.5-0.1,0.7-0.2c0.2-0.1,0.3-0.2,0.4-0.3
		l-3.1-2.3l-1.4,1.6h-2.4v-2.1h7.5c0.4,0,0.7-0.2,0.8-0.5c-0.3-0.3-0.7-0.6-1.1-1c-0.4-0.4-0.9-0.8-1.5-1.3l-1.5,1.9h-1.5V8h3.8
		c0.4,0,0.7-0.2,0.8-0.5c-0.3-0.3-0.7-0.6-1-0.9c-0.4-0.3-0.9-0.7-1.4-1.2l-1.3,1.7h-0.8V4.8h4.3c0.4,0,0.7-0.2,0.8-0.5
		c-0.3-0.3-0.7-0.6-1.1-1c-0.4-0.4-0.9-0.8-1.5-1.2l-1.5,1.8h-1V2c0.3-0.1,0.5-0.2,0.7-0.3s0.2-0.3,0.2-0.5l-3.9-0.4v3H163v-2
		c0.3,0,0.5-0.1,0.6-0.2c0.1-0.1,0.2-0.3,0.2-0.4L160,0.9v3h-3.4l0.2,0.9h3.2v2.4h-2.4l0.2,0.8h2.2v2.5H156l0.2,0.9h7v2.1h-2.5
		l-3.1-1.3v1.3v0.9c0-0.2-0.1-0.4-0.2-0.6c-0.2-0.5-0.7-0.9-1.2-1.4c-0.6-0.5-1.4-0.9-2.5-1.3V8.8h3.5c0.5,0,0.7-0.2,0.8-0.5
		c-0.3-0.3-0.7-0.7-1.1-1.1c-0.4-0.4-0.9-0.9-1.5-1.4L153.9,8h-0.3V2c0.4-0.1,0.7-0.2,0.8-0.3c0.1-0.1,0.2-0.3,0.2-0.5l-4.3-0.4V8
		H150h-3.3l0.2,0.8h2.9c-0.2,1.3-0.4,2.5-0.6,3.8c-0.3,1.6-0.7,3.1-1.1,4.5c-0.5,1.4-1,2.8-1.7,3.9l0.4,0.3c1.4-1.4,2.6-3,3.5-4.7
		v11.5h0.7c0.4,0,0.8-0.1,1.2-0.2c0.4-0.1,0.7-0.3,1-0.4c0.3-0.2,0.4-0.3,0.4-0.4V11.8c0.2,0.3,0.3,0.6,0.5,0.9
		c0.2,0.5,0.5,1.1,0.6,1.6c0.2,0.5,0.3,1.1,0.3,1.6c0.4,0.3,0.8,0.5,1.2,0.5c0.4,0,0.7-0.1,1-0.4c0.2-0.2,0.4-0.5,0.4-0.8v6.1h-2.5
		l0.2,0.8h2.2v6h0.5c0.4,0,0.8-0.1,1.2-0.2c0.4-0.1,0.7-0.3,0.9-0.4c0.2-0.2,0.4-0.3,0.4-0.4v-5h8.3v2.3c0,0.2,0,0.3-0.1,0.4
		c-0.1,0.1-0.2,0.1-0.5,0.1c-0.1,0-0.4,0-0.7,0c-0.3,0-0.6,0-1-0.1c-0.3,0-0.8,0-1.2-0.1v0.4c0.6,0.1,1.1,0.2,1.4,0.4
		c0.3,0.2,0.6,0.3,0.7,0.5c0.2,0.2,0.3,0.5,0.4,0.8c0.1,0.3,0.1,0.7,0.1,1.1c1.1-0.1,2-0.3,2.5-0.6c0.5-0.3,0.9-0.6,1.1-1.1
		c0.2-0.5,0.2-1,0.2-1.7v-2.6h2.3c0.4,0,0.7-0.2,0.7-0.5C174.7,21.4,174.4,21.1,174.1,20.7z M163,4.8h2.9v2.4H163V4.8z M163,8h2.9
		v2.5H163V8z M168.9,14.3v3h-2.7v-3H168.9z M163.2,14.3v3h-2.6v-3H163.2z M160.6,18.1h2.6v3.3h-2.6V18.1z M166.2,21.4v-3.3h2.7v3.3
		H166.2z"/>
</g>
</svg>
